<?xml version="1.0" standalone="no"?>
<!DOCTYPE svg PUBLIC "-//W3C//DTD SVG 20010904//EN"
 "http://www.w3.org/TR/2001/REC-SVG-20010904/DTD/svg10.dtd">
<svg version="1.0" xmlns="http://www.w3.org/2000/svg"
 width="700.000000pt" height="700.000000pt" viewBox="0 0 700.000000 700.000000"
 preserveAspectRatio="xMidYMid meet">
<metadata>
Created by potrace 1.14, written by Peter Selinger 2001-2017
</metadata>
<g transform="translate(0.000000,700.000000) scale(0.100000,-0.100000)"
fill="#000000" stroke="none">
<path d="M3410 6833 c-24 -9 -68 -31 -96 -49 -28 -18 -66 -41 -85 -52 -19 -11
-167 -99 -329 -197 -162 -98 -304 -183 -315 -189 -11 -6 -78 -47 -150 -90 -71
-43 -139 -83 -150 -89 -194 -116 -216 -134 -251 -204 l-28 -58 0 -795 0 -795
23 -47 c14 -26 38 -61 54 -78 28 -28 1191 -734 1298 -787 58 -29 131 -39 186
-24 23 6 306 170 630 364 323 194 599 360 613 368 97 57 153 118 175 192 9 32
12 226 11 822 -1 769 -2 781 -22 825 -12 25 -36 61 -55 81 -28 30 -375 243
-1181 724 -164 98 -227 113 -328 78z"/>
<path d="M1583 3618 c-24 -5 -155 -77 -310 -170 -147 -88 -282 -169 -300 -179
-17 -10 -50 -29 -72 -43 -22 -15 -45 -26 -51 -26 -5 0 -10 -4 -10 -10 0 -5 -4
-10 -9 -10 -5 0 -64 -34 -131 -75 -67 -41 -123 -75 -124 -75 -4 0 -264 -158
-298 -180 -57 -39 -95 -90 -112 -149 -14 -50 -16 -152 -16 -818 0 -688 2 -766
17 -813 27 -84 87 -136 295 -255 10 -5 115 -68 233 -140 118 -71 223 -134 233
-140 22 -13 172 -103 192 -115 39 -25 284 -170 286 -170 2 0 29 -16 59 -36
146 -93 225 -88 410 26 39 24 84 51 100 60 17 10 197 118 400 240 204 122 384
230 400 240 136 78 255 155 284 182 19 18 46 57 59 88 l26 54 -1 766 c0 421
-3 782 -7 803 -10 53 -39 107 -78 144 -26 24 -274 180 -393 247 -11 6 -217
130 -458 274 -241 145 -450 267 -464 273 -40 15 -112 18 -160 7z"/>
<path d="M5289 3622 c-43 -13 -248 -129 -419 -237 -19 -12 -228 -138 -465
-279 -236 -142 -447 -274 -467 -293 -20 -20 -47 -59 -59 -87 l-22 -51 0 -785
c0 -767 0 -786 20 -831 11 -25 35 -62 53 -82 37 -43 1270 -788 1346 -814 85
-29 168 -9 287 69 32 21 60 38 62 38 2 0 74 43 161 95 87 52 161 95 166 95 4
0 8 5 8 10 0 6 4 10 9 10 5 0 118 66 252 146 134 81 253 152 264 158 166 92
315 197 315 223 0 6 4 13 9 15 5 1 16 28 25 58 14 48 16 142 14 835 l-3 780
-30 54 c-16 29 -44 66 -63 81 -26 22 -203 131 -315 195 -9 5 -99 59 -200 120
-225 136 -203 123 -283 169 -36 21 -86 51 -109 67 -24 16 -46 29 -51 29 -4 0
-21 10 -38 23 -17 13 -38 26 -46 30 -8 4 -32 17 -52 29 -128 79 -200 118 -236
128 -40 10 -101 11 -133 2z"/>
</g>
</svg>
